<?xml version="1.0" encoding="utf-8"?>
<!-- Generator: Adobe Illustrator 26.0.1, SVG Export Plug-In . SVG Version: 6.00 Build 0)  -->
<svg version="1.1" xmlns="http://www.w3.org/2000/svg" xmlns:xlink="http://www.w3.org/1999/xlink" x="0px" y="0px"
	 viewBox="0 0 1200 1200" style="enable-background:new 0 0 1200 1200;" xml:space="preserve">
<style type="text/css">
	.st0{display:none;}
	.st1{display:inline;fill:#A9CABA;}
	.st2{fill:#B04220;}
	.st3{fill:#F5F5F5;}
	.st4{fill:#553625;}
	.st5{fill:#FFDDBF;}
	.st6{fill:#F2F2F2;}
	.st7{fill:none;}
</style>
<g id="Layer_2" class="st0">
	<rect class="st1" width="1200" height="1200"/>
</g>
<g id="Layer_1">
	<g>
		<g>
			<g id="XMLID_1_">
				<g>
					<path class="st2" d="M515.93,176.61c62.16,57.48,65.25,159.81,5.43,233.15c-16.36,20.06-35.81,35.89-56.81,47.39
						c5.5,26.49-12.15,54.23-12.15,54.23l-42.71-34.84c-35.3,6.25-71.4,1.3-102.61-15.72l-17.62,21.6l-51.43-41.95l13.86-16.99
						c-23.09-33.67-30.38-77.64-23.04-121.14l-27.91-22.76c-6.74-5.5-7.28-16.02-1.21-23.47l22.03-27.01
						c6.08-7.45,16.48-9.02,23.22-3.52l9.01,7.35c5.35-9.18,11.41-18.02,18.23-26.39c7.63-9.35,15.92-17.75,24.72-25.27l-9.5-7.75
						c-6.74-5.5-7.28-16.02-1.2-23.47l22.03-27.01c6.08-7.45,16.49-9.04,23.24-3.54l31.13,25.39
						c47.53-14.68,98.71-8.77,138.97,20.04c25.93-17.75,40.69,14.95,40.69,14.95C531.07,170.75,522.24,172.3,515.93,176.61z
						 M458.08,418.43l4.97,12.47c2.19-0.86,53.38-21.9,66.79-81.64l-13.1-2.95C504.89,399.21,458.54,418.25,458.08,418.43z
						 M361.6,409.21c-6.09,7.47-4.98,18.45,2.49,24.55c7.47,6.1,18.46,4.98,24.55-2.5c6.09-7.47,4.98-18.45-2.5-24.55
						C378.68,400.62,367.7,401.74,361.6,409.21z"/>
					<path class="st3" d="M529.84,349.26l-13.1-2.95c-11.85,52.9-58.19,71.93-58.66,72.12l4.97,12.47
						C465.24,430.05,516.43,409,529.84,349.26z"/>
					<path class="st3" d="M388.65,431.26c6.09-7.47,4.98-18.45-2.5-24.55c-7.47-6.1-18.45-4.98-24.55,2.49
						c-6.09,7.47-4.98,18.45,2.49,24.55C371.57,439.85,382.56,438.74,388.65,431.26z"/>
				</g>
			</g>
		</g>
		<path class="st4" d="M388.25,422.5c0.29,6.29-4.57,11.63-10.87,11.92c-6.29,0.29-11.62-4.57-11.92-10.87
			c-0.29-6.29,4.57-11.63,10.87-11.92C382.63,411.35,387.97,416.21,388.25,422.5z"/>
	</g>
	<g>
		<path class="st5" d="M341.2,1084.18c0,0,93.88-490.23,387.25-505.64c293.37-15.41,112.38,505.64,112.38,505.64H341.2z"/>
		<polygon class="st6" points="321.97,1200 358.66,927.06 856,1060.72 846.08,1200 		"/>
		<path class="st4" d="M429.71,1026.7l22.71-24.15c0,0,62.43,14.55,63.36,16.41c0.93,1.86,11.93,34.72,11.93,34.72l-39.93,35.61
			L502.47,1200H396.2l41.67-128.07L429.71,1026.7z"/>
		<path class="st4" d="M585.48,422.2c0,0-99.82,200.92,240.43,354.59l-3.04,96.97c0,0,54.59-38.43,44.55,22.89
			c-10.04,61.32-44,14.76-44,14.76s-10.8,60.34,25.53,147.42c0,0,296.13-338.37,117.38-331.39c0,0,57.89-99.68-73.01-179.57
			C760.72,466.93,663.95,578.37,585.48,422.2z"/>
		<path class="st4" d="M563.25,743.38c-9.52,10.95-18.97,13.01-24.36,8.33c-5.38-4.68-4.66-14.33,4.86-25.28
			c9.52-10.95,18.97-13.01,24.36-8.33C573.5,722.78,572.77,732.43,563.25,743.38z"/>
		<path class="st4" d="M662.15,816.23c-10.31,10.21-19.89,11.57-24.91,6.5c-5.02-5.07-3.58-14.63,6.73-24.85
			c10.31-10.21,19.89-11.57,24.91-6.5C673.9,796.45,672.46,806.02,662.15,816.23z"/>
		<g>
			<path class="st7" d="M234.67,387.21c0.3-0.03,0.68-0.11,1.12-0.2C235.35,387.09,234.96,387.17,234.67,387.21z"/>
			<path class="st5" d="M219.41,414.61c5.01-15.64,29.93,1.32,29.2-16.65c-0.52-12.84-7.77-11.99-11.88-11.14
				c4.61-1.03,13.35-3.94,13.35-11.23c0-10.91-7.54-12.6-12.43-12.55c5.44-0.79,11.49-7.27,11.69-12.4
				c0.48-12.18-8.05-12.54-14.07-11.31c5.73-2.31,12.86-7.09,6.73-15.46c-13.5-18.47-35.07,10.79-35.07,10.79
				s-244.27,355.87,52.33,617.25l34.31-44.56C214.28,835.91,112.34,683.57,219.41,414.61z M235.78,387.01
				c-0.44,0.09-0.82,0.17-1.12,0.2C234.96,387.17,235.35,387.09,235.78,387.01z"/>
			<path class="st6" d="M366.56,958.23c0,0-33.72-15.53-72.99-50.9l-34.31,44.56c30.92,27.25,67.71,53.48,111.29,78.16
				L366.56,958.23z"/>
		</g>
		<g>
			<path class="st5" d="M997.75,457.77c0,0-19.01-26.03-34.51-8.36c-7.34,8.36,7.72,14.31,7.72,14.31s-12.49-3.67-14.48,9.41
				c-1.34,8.83,7.32,9.31,11.16,9.67c-2.99,1.46-11.37,0.73-11.79,11.01c-0.33,8.07,10.33,10.33,13.99,10.86
				c-3.42-0.3-13.6-0.21-15.04,11.51c-2.46,20.08,21.38-0.6,33.41,28.9c114.53,264.91,4.98,412.65-73.84,478.74l42.43,42.22
				C1244.05,824.24,997.75,457.77,997.75,457.77z"/>
			<path class="st6" d="M849.86,1066.69l-3.98,71.82c43.67-22.34,80.32-46.7,110.93-72.47l-42.43-42.22
				C879.03,1053.46,849.86,1066.69,849.86,1066.69z"/>
		</g>
		<path class="st4" d="M464.86,862.74c0,0,120.82-105.58,120.03,77.87C584.89,940.6,536.86,876.82,464.86,862.74z"/>
	</g>
</g>
</svg>
